<?xml version="1.0" encoding="utf-8"?>
<!-- Generator: Adobe Illustrator 18.1.0, SVG Export Plug-In . SVG Version: 6.00 Build 0)  -->
<!DOCTYPE svg PUBLIC "-//W3C//DTD SVG 1.1//EN" "http://www.w3.org/Graphics/SVG/1.1/DTD/svg11.dtd">
<svg version="1.1" id="Layer_1" xmlns="http://www.w3.org/2000/svg" xmlns:xlink="http://www.w3.org/1999/xlink" x="0px" y="0px"
	 viewBox="0 300 1440 300" enable-background="new 0 300 1440 300" xml:space="preserve">
<g>
	<g>
		<path fill="#FFFFFF" d="M262.3,591.9c-48.8,0-74.6-28.7-74.6-83.3l0,0c0-54.6,25.9-83.3,74.6-83.3h60.3V454h-68.9
			c-14.4,0-23,5.7-28.7,14.4c-5.7,8.7-8.7,23-8.7,40.2c0,34.4,14.4,54.6,40.2,54.6h66.1v28.7L262.3,591.9L262.3,591.9z"/>
		<path fill="#FFFFFF" d="M417.4,428.1c48.8,0,74.6,28.7,74.6,83.3l0,0c0,54.6-25.9,83.3-74.6,83.3h-11.5
			c-48.8,0-74.6-28.7-74.6-83.3l0,0c0-54.6,25.9-83.3,74.6-83.3H417.4L417.4,428.1z M397.3,456.9c-14.4,0-23,5.7-28.7,14.4
			c-5.7,8.7-8.7,23-8.7,40.2c0,34.4,14.4,54.6,40.2,54.6h28.7c25.9,0,40.2-17.2,40.2-54.6c0-20.1-2.8-31.6-8.7-40.2
			c-5.7-8.7-17.2-14.4-28.7-14.4H397.3z"/>
		<path fill="#FFFFFF" d="M670.2,554.5c0,5.7,0,11.5-2.8,17.2s-5.7,8.7-8.7,11.5c-2.8,2.8-8.7,5.7-14.4,8.7s-11.5,2.8-17.2,2.8
			c-8.7,0-17.2-2.8-23-5.7c-5.7-5.7-11.5-11.5-14.4-20.1l-34.4-100.5c0-2.8-2.8-5.7-2.8-8.7c-2.8-2.8-2.8-2.8-5.7-2.8
			c-8.7,0-11.5,5.7-11.5,14.4v123.5h-31.6V468.4c0-5.7,0-11.5,2.8-17.2s5.7-8.7,8.7-11.5c2.8-2.8,8.7-5.7,14.4-8.7
			s11.5-2.8,17.2-2.8c8.7,0,17.2,2.8,23,5.7c5.7,5.7,11.5,11.5,14.4,20.1l34.4,103.4c0,2.8,2.8,5.7,2.8,8.7c2.8,2.8,2.8,2.8,5.7,2.8
			c8.7,0,11.5-5.7,11.5-14.4V431h31.6L670.2,554.5L670.2,554.5z"/>
		<path fill="#FFFFFF" d="M808.1,456.9h-54.6c-11.5,0-23,2.8-31.6,8.7c-8.7,5.7-11.5,17.2-11.5,28.7h97.7V523h-97.7v68.9h-28.7
			v-94.8c0-11.5,2.8-20.1,5.7-28.7c2.8-8.7,8.7-17.2,14.4-23s14.4-11.5,23-14.4s20.1-5.7,31.6-5.7h51.7L808.1,456.9L808.1,456.9z"/>
		<path fill="#FFFFFF" d="M816.7,428.1h28.7v166.6h-28.7V428.1z"/>
		<path fill="#FFFFFF" d="M928.7,591.9c-48.8,0-74.6-28.7-74.6-83.3l0,0c0-54.6,25.9-83.3,74.6-83.3H989V454h-66.1
			c-14.4,0-23,5.7-28.7,14.4c-5.7,8.7-8.7,23-8.7,40.2c0,34.4,14.4,54.6,40.2,54.6h34.4c2.8,0,5.7,0,5.7-2.8c2.8,0,2.8-2.8,5.7-5.7
			c2.8-2.8,2.8-2.8,2.8-5.7c0-2.8,2.8-5.7,2.8-8.7c0-5.7-2.8-8.7-5.7-14.4c-2.8-2.8-8.7-5.7-14.4-5.7h-25.9v-28.7h28.7
			c5.7,0,11.5,0,17.2,2.8s11.5,5.7,14.4,11.5c2.8,5.7,8.7,8.7,8.7,17.2c2.8,5.7,2.8,11.5,2.8,20.1c0,5.7,0,11.5-2.8,17.2
			s-5.7,11.5-11.5,14.4c-2.8,5.7-8.7,8.7-14.4,11.5S962.7,589,957,589h-28.7L928.7,591.9L928.7,591.9z"/>
		<path fill="#FFFFFF" d="M1152.8,528.7c0,8.7,0,17.2-2.8,25.9s-2.8,14.4-8.7,20.1c-5.7,5.7-14.4,8.7-23,11.5
			c-8.7,2.8-20.1,5.7-31.6,5.7s-20.1-2.8-28.7-5.7c-8.7-2.8-17.2-8.7-23-11.5c-5.7-5.7-11.5-11.5-14.4-20.1
			c-2.8-8.7-5.7-17.2-5.7-25.9V425.3h28.7v103.4c0,11.5,2.8,17.2,11.5,25.9c8.7,5.7,17.2,8.7,31.6,8.7l0,0c14.4,0,23-2.8,28.7-8.7
			c5.7-5.8,8.7-14.4,8.7-25.9V425.3h28.7L1152.8,528.7L1152.8,528.7z"/>
		<path fill="#FFFFFF" d="M1247.5,422.4c8.7,0,17.2,2.8,23,5.7c5.7,2.8,11.5,8.7,17.2,14.4c2.8,5.7,8.7,8.7,8.7,14.4
			c2.8,5.7,2.8,11.5,2.8,20.1c0,5.7,0,11.5-2.8,17.2s-5.7,11.5-8.7,14.4c-2.8,5.7-8.7,8.7-17.2,11.5c-5.7,2.8-14.4,2.8-23,2.8h-14.4
			l66.1,37.4v34.4l-106.3-66.1v60.3h-28.7V422.4H1247.5L1247.5,422.4z M1192.9,497.1h57.4c5.7,0,8.7-2.8,14.4-5.7
			c2.8-2.8,5.7-8.7,5.7-14.4c0-2.8,0-5.7-2.8-8.7c0-2.8-2.8-5.7-2.8-5.7c-2.8-2.8-2.8-2.8-5.7-5.7c-2.8,0-5.7-2.8-8.7-2.8H1193
			C1192.9,454,1192.9,497.1,1192.9,497.1z"/>
		<path fill="#FFFFFF" d="M1440,448.9h-86.2c-2.8,0-5.7,0-8.7,2.8c-2.8,0-2.8,2.8-5.7,2.8c-2.8,2.8-2.8,2.8-2.8,5.7
			s-2.8,5.7-2.8,8.7c0,5.7,2.8,8.7,5.7,14.4c2.8,2.8,8.7,5.7,14.4,5.7h86.2v28.7h-86.2c-2.8,0-5.7,0-8.7,2.8c-2.8,0-2.8,2.8-5.7,2.8
			c-2.8,2.8-2.8,2.8-2.8,5.7c0,2.8-2.8,5.7-2.8,8.7c0,5.7,2.8,11.5,5.7,14.4c2.8,2.8,8.7,5.7,14.4,5.7h86.2v28.8h-83.3
			c-8.7,0-17.2,0-23-2.8c-5.7-2.8-11.5-5.7-17.2-11.5c-2.8-5.7-5.7-8.7-8.7-14.4c-2.8-5.7-2.8-11.5-2.8-17.2s0-14.4,2.8-20.1
			c2.8-5.7,8.7-11.5,14.4-14.4c-5.7-2.8-11.5-8.7-14.4-14.4s-2.8-11.5-2.8-17.2s0-14.4,2.8-20.1s5.7-14.4,8.7-17.2
			c2.8-5.7,8.7-11.5,17.2-14.4c5.7-2.8,14.4-5.7,23-5.7h83.3v31.7H1440z"/>
	</g>
	<g>
		<path fill="#FFFFFF" d="M41.2,428.1h28.7L32.5,591.9H3.8L41.2,428.1z"/>
		<path fill="#FFFFFF" d="M55.5,543c2.8-17.2,11.5-28.7,23-37.4c11.5-5.7,25.9-11.5,40.2-11.5h34.4c5.7,0,11.5-2.8,14.4-5.7
			c5.7-2.8,8.7-8.7,8.7-14.4c0-2.8,0-5.7,0-8.7v-2.7c0-2.8-2.8-2.8-5.7-2.8s-2.8-2.8-5.7-2.8H78.7l5.7-28.7h83.3
			c8.7,0,17.2,0,23,2.8s11.5,5.7,14.4,11.5c2.8,5.7,5.7,8.7,5.7,14.4s0,11.5,0,20.1c0,5.7-2.8,11.5-5.7,17.2
			c-2.8,5.7-8.7,11.5-11.5,14.4c-11.5,5.7-17.2,8.7-25.9,11.5c-8.7,2.8-14.4,2.8-25.9,2.8h-34.4c-5.7,0-8.7,2.8-14.4,5.7
			c-5.7,2.8-5.7,8.7-8.7,14.4l-11.5,48.8H44.1L55.5,543z"/>
	</g>
</g>
<g enable-background="new    ">
	<path fill="#FFFFFF" d="M384.5,373.2v-71h33.2c15.5,0,23.8,10.4,23.8,22.9c0,12.4-8.5,22.9-23.8,22.9h-18.2v25.2H384.5L384.5,373.2
		z M426.1,325.1c0-6-4.5-9.6-10.4-9.6h-16.1v19.2h16C421.7,334.7,426.1,331,426.1,325.1z"/>
	<path fill="#FFFFFF" d="M448.2,337.8c0-21.4,15.6-36.8,37-36.8c21.5,0,37.2,15.3,37.2,36.8c0,21.4-15.6,36.7-37.2,36.7
		C463.9,374.5,448.2,359.2,448.2,337.8z M506.9,337.8c0-13.3-8.5-23.3-21.6-23.3s-21.5,10-21.5,23.3c0,13.2,8.4,23.3,21.5,23.3
		S506.9,351,506.9,337.8z"/>
	<path fill="#FFFFFF" d="M585.9,373.2l-12.4-48.7l-12.4,48.7h-16l-20.3-71h16.9l12.4,51.3l13.5-51.3h11.8l13.4,51.3l12.4-51.3h16.9
		l-20.2,71H585.9z"/>
	<path fill="#FFFFFF" d="M630.1,373.2v-71h50.3v13.3h-35.1v15h34.4v13.3h-34.4v16h35.1v13.3L630.1,373.2L630.1,373.2z"/>
	<path fill="#FFFFFF" d="M732.9,373.2L719,348h-11v25.2h-15.1v-71h33.2c14.8,0,23.8,9.7,23.8,22.9c0,12.5-7.9,19.2-15.6,21l16,27
		h-17.4V373.2z M734.5,325.1c0-6-4.6-9.6-10.6-9.6H708v19.2h15.9C729.9,334.7,734.5,331,734.5,325.1z"/>
	<path fill="#FFFFFF" d="M762,373.2v-71h50.3v13.3h-35.1v15h34.4v13.3h-34.4v16h35.1v13.3L762,373.2L762,373.2z"/>
	<path fill="#FFFFFF" d="M824.8,373.2v-71h28c22.3,0,37.7,14.2,37.7,35.5c0,21.4-15.5,35.4-37.7,35.4L824.8,373.2L824.8,373.2z
		 M875,337.8c0-12.5-7.7-22.3-22.3-22.3h-12.9v44.4h12.9C866.8,359.9,875,349.8,875,337.8z"/>
	<path fill="#FFFFFF" d="M929.9,373.2v-71h37.3c13.5,0,20.5,8.6,20.5,18.1c0,8.9-5.6,14.9-12.3,16.3c7.5,1.1,13.6,8.5,13.6,17.4
		c0,10.6-7.1,19.2-20.6,19.2H929.9L929.9,373.2z M972.3,323c0-4.5-3.2-7.8-8.3-7.8h-18.9v15.5H964
		C969.1,330.6,972.3,327.4,972.3,323z M973.7,351.9c0-4.5-3.2-8.3-9.2-8.3H945v16.5h19.5C970.2,360.1,973.7,357.1,973.7,351.9z"/>
	<path fill="#FFFFFF" d="M1017.8,373.2v-29.1l-27.3-41.9h17.3l17.7,28.5l17.4-28.5h17.3l-27.2,41.9v29.1H1017.8z"/>
</g>
</svg>
